<svg version="1.1" id="svg-cross-white" xmlns="http://www.w3.org/2000/svg" xmlns:xlink="http://www.w3.org/1999/xlink" x="0px" y="0px"
	 viewBox="0 0 32 32" style="enable-background:new 0 0 32 32;" xml:space="preserve" class="svg-icon-sprite">
<path id="np_close_1042914_000000" d="M19.4,16L31.2,4.7c0.9-0.9,0.9-2.3,0.1-3.2c0,0,0,0-0.1-0.1c-1-0.9-2.5-0.9-3.5,0
	L16,12.7L4.2,1.4c-1-0.9-2.5-0.9-3.5,0c-0.9,0.9-0.9,2.3-0.1,3.2c0,0,0,0,0.1,0.1L12.5,16L0.7,27.3c-0.9,0.9-0.9,2.3-0.1,3.2
	c0,0,0,0,0.1,0.1c0.5,0.4,1.1,0.7,1.7,0.7c0.6,0,1.3-0.2,1.7-0.7L16,19.3l11.8,11.3c0.5,0.4,1.1,0.7,1.7,0.7c0.6,0,1.3-0.2,1.7-0.7
	c0.9-0.9,0.9-2.3,0.1-3.2c0,0,0,0-0.1-0.1L19.4,16z"/>
</svg>
